<svg width="60" height="60" viewBox="0 0 60 60" fill="none" xmlns="http://www.w3.org/2000/svg">
<circle cx="30" cy="30" r="30" fill="#C8FFBF"></circle>
<path d="M31.167 43.3333H21.167C20.725 43.3333 20.301 43.1578 19.9885 42.8452C19.6759 42.5326 19.5003 42.1087 19.5003 41.6667V18.3333C19.5003 17.8913 19.6759 17.4674 19.9885 17.1548C20.301 16.8423 20.725 16.6667 21.167 16.6667H29.5003V21.6667C29.5003 22.9928 30.0271 24.2645 30.9648 25.2022C31.9025 26.1399 33.1742 26.6667 34.5003 26.6667H39.5003V35C39.5003 35.442 39.6759 35.866 39.9885 36.1785C40.301 36.4911 40.725 36.6667 41.167 36.6667C41.609 36.6667 42.0329 36.4911 42.3455 36.1785C42.6581 35.866 42.8337 35.442 42.8337 35V25C42.8337 25 42.8337 25 42.8337 24.9C42.8163 24.7469 42.7828 24.5961 42.7337 24.45V24.3C42.6535 24.1286 42.5466 23.9711 42.417 23.8333L32.417 13.8333C32.2792 13.7037 32.1217 13.5968 31.9503 13.5167C31.8952 13.507 31.8388 13.507 31.7837 13.5167C31.6216 13.43 31.4474 13.3682 31.267 13.3333H21.167C19.8409 13.3333 18.5691 13.8601 17.6315 14.7978C16.6938 15.7355 16.167 17.0073 16.167 18.3333V41.6667C16.167 42.9928 16.6938 44.2645 17.6315 45.2022C18.5691 46.1399 19.8409 46.6667 21.167 46.6667H31.167C31.609 46.6667 32.0329 46.4911 32.3455 46.1785C32.6581 45.866 32.8337 45.442 32.8337 45C32.8337 44.558 32.6581 44.1341 32.3455 43.8215C32.0329 43.5089 31.609 43.3333 31.167 43.3333ZM32.8337 19.0167L37.1503 23.3333H34.5003C34.0583 23.3333 33.6344 23.1577 33.3218 22.8452C33.0093 22.5326 32.8337 22.1087 32.8337 21.6667V19.0167ZM24.5003 33.3333H34.5003C34.9424 33.3333 35.3663 33.1577 35.6788 32.8452C35.9914 32.5326 36.167 32.1087 36.167 31.6667C36.167 31.2246 35.9914 30.8007 35.6788 30.4882C35.3663 30.1756 34.9424 30 34.5003 30H24.5003C24.0583 30 23.6344 30.1756 23.3218 30.4882C23.0093 30.8007 22.8337 31.2246 22.8337 31.6667C22.8337 32.1087 23.0093 32.5326 23.3218 32.8452C23.6344 33.1577 24.0583 33.3333 24.5003 33.3333ZM31.167 36.6667H24.5003C24.0583 36.6667 23.6344 36.8423 23.3218 37.1548C23.0093 37.4674 22.8337 37.8913 22.8337 38.3333C22.8337 38.7754 23.0093 39.1993 23.3218 39.5119C23.6344 39.8244 24.0583 40 24.5003 40H31.167C31.609 40 32.0329 39.8244 32.3455 39.5119C32.6581 39.1993 32.8337 38.7754 32.8337 38.3333C32.8337 37.8913 32.6581 37.4674 32.3455 37.1548C32.0329 36.8423 31.609 36.6667 31.167 36.6667ZM24.5003 26.6667H26.167C26.609 26.6667 27.0329 26.4911 27.3455 26.1785C27.6581 25.866 27.8337 25.442 27.8337 25C27.8337 24.558 27.6581 24.1341 27.3455 23.8215C27.0329 23.5089 26.609 23.3333 26.167 23.3333H24.5003C24.0583 23.3333 23.6344 23.5089 23.3218 23.8215C23.0093 24.1341 22.8337 24.558 22.8337 25C22.8337 25.442 23.0093 25.866 23.3218 26.1785C23.6344 26.4911 24.0583 26.6667 24.5003 26.6667ZM47.3503 37.15C47.1954 36.9938 47.0111 36.8698 46.808 36.7852C46.6049 36.7006 46.387 36.657 46.167 36.657C45.947 36.657 45.7291 36.7006 45.526 36.7852C45.3229 36.8698 45.1386 36.9938 44.9837 37.15L39.5003 42.65L37.3503 40.4833C37.1949 40.3279 37.0104 40.2047 36.8074 40.1206C36.6044 40.0365 36.3868 39.9932 36.167 39.9932C35.9472 39.9932 35.7296 40.0365 35.5266 40.1206C35.3235 40.2047 35.1391 40.3279 34.9837 40.4833C34.8283 40.6387 34.705 40.8232 34.6209 41.0263C34.5368 41.2293 34.4935 41.4469 34.4935 41.6667C34.4935 41.8864 34.5368 42.1041 34.6209 42.3071C34.705 42.5101 34.8283 42.6946 34.9837 42.85L38.317 46.1833C38.4719 46.3396 38.6563 46.4636 38.8594 46.5482C39.0625 46.6328 39.2803 46.6763 39.5003 46.6763C39.7203 46.6763 39.9382 46.6328 40.1413 46.5482C40.3444 46.4636 40.5287 46.3396 40.6837 46.1833L47.3503 39.5167C47.5065 39.3617 47.6305 39.1774 47.7151 38.9743C47.7998 38.7712 47.8433 38.5534 47.8433 38.3333C47.8433 38.1133 47.7998 37.8955 47.7151 37.6924C47.6305 37.4893 47.5065 37.305 47.3503 37.15Z" fill="#169D00"></path>
</svg>
