<svg width="60" height="60" fill="none" xmlns="http://www.w3.org/2000/svg"><circle cx="30" cy="30" r="30" fill="#C8FFBF"/><path d="M31.167 43.333h-10a1.666 1.666 0 0 1-1.667-1.666V18.333a1.667 1.667 0 0 1 1.667-1.666H29.5v5a5 5 0 0 0 5 5h5V35a1.666 1.666 0 1 0 3.334 0V24.9a2.188 2.188 0 0 0-.1-.45v-.15a1.786 1.786 0 0 0-.317-.467l-10-10a1.783 1.783 0 0 0-.467-.316.48.48 0 0 0-.166 0 1.834 1.834 0 0 0-.517-.184h-10.1a5 5 0 0 0-5 5v23.334a5 5 0 0 0 5 5h10a1.667 1.667 0 0 0 0-3.334Zm1.667-24.316 4.316 4.316H34.5a1.667 1.667 0 0 1-1.666-1.666v-2.65ZM24.5 33.333h10a1.667 1.667 0 1 0 0-3.333h-10a1.667 1.667 0 0 0 0 3.333Zm6.667 3.334H24.5a1.667 1.667 0 0 0 0 3.333h6.667a1.667 1.667 0 0 0 0-3.333Zm-6.667-10h1.667a1.667 1.667 0 0 0 0-3.334H24.5a1.667 1.667 0 0 0 0 3.334ZM47.35 37.15a1.666 1.666 0 0 0-2.366 0l-5.484 5.5-2.15-2.167a1.674 1.674 0 0 0-2.366 2.367l3.333 3.333a1.665 1.665 0 0 0 2.367 0l6.666-6.666a1.667 1.667 0 0 0 0-2.367Z" fill="#169D00"/></svg>